<?xml version="1.0" encoding="UTF-8"?>
<!DOCTYPE svg PUBLIC "-//W3C//DTD SVG 1.1//EN" "http://www.w3.org/Graphics/SVG/1.1/DTD/svg11.dtd">
<!-- Creator: CorelDRAW 2018 (64-Bit) -->
<svg xmlns="http://www.w3.org/2000/svg" xml:space="preserve" width="100%" height="100%" version="1.1" style="shape-rendering:geometricPrecision; text-rendering:geometricPrecision; image-rendering:optimizeQuality; fill-rule:evenodd; clip-rule:evenodd"
viewBox="0 0 21 21"
 xmlns:xlink="http://www.w3.org/1999/xlink">
 <defs>
  <style type="text/css">
   <![CDATA[
    .fil0 {fill:white}
   ]]>
  </style>
 </defs>
 <g id="Слой_x0020_1">
  <metadata id="CorelCorpID_0Corel-Layer"/>
  <path class="fil0" d="M10.91687 13.43196c-0.01313,0.01676 -0.02743,0.03295 -0.04286,0.04841 -0.20502,0.20502 -0.53743,0.20502 -0.74246,0l-8.33673 -8.33673c-0.1902,-0.19139 -0.45368,-0.3099 -0.74483,-0.3099 -0.57989,0 -1.05,0.47009 -1.04998,1.05 -0.00002,0.29114 0.11848,0.55461 0.30988,0.74483l9.07643 9.07641c0.28501,0.28503 0.67876,0.46127 1.11367,0.46127 0.43344,0 0.82604,-0.17508 1.11082,-0.45839l9.07929 -9.07929c0.19139,-0.19022 0.3099,-0.45368 0.30988,-0.74483 0.00002,-0.57992 -0.47006,-1.05 -1.04998,-1.05 -0.29114,0 -0.55463,0.1185 -0.74483,0.3099l-8.2883 8.28832z"/>
 </g>
</svg>
