<?xml version="1.0" encoding="UTF-8"?>
<!DOCTYPE svg PUBLIC "-//W3C//DTD SVG 1.1//EN" "http://www.w3.org/Graphics/SVG/1.1/DTD/svg11.dtd">
<!-- Creator: CorelDRAW 2018 (64-Bit) -->
<svg xmlns="http://www.w3.org/2000/svg" xml:space="preserve" width="100%" height="100%" version="1.1" style="shape-rendering:geometricPrecision; text-rendering:geometricPrecision; image-rendering:optimizeQuality; fill-rule:evenodd; clip-rule:evenodd"
viewBox="0 0 10 10"
 xmlns:xlink="http://www.w3.org/1999/xlink">
 <defs>
  <style type="text/css">
   <![CDATA[
    .fil0 {fill:white}
   ]]>
  </style>
 </defs>
 <g id="Слой_x0020_1">
  <metadata id="CorelCorpID_0Corel-Layer"/>
  <path class="fil0" d="M8.59439 5.1985c0.00798,-0.00625 0.01569,-0.01306 0.02305,-0.02041 0.09763,-0.09763 0.09763,-0.25592 0,-0.35355l-3.96987 -3.96987c-0.09114,-0.09057 -0.14757,-0.21604 -0.14757,-0.35468 0,-0.27614 0.22385,-0.5 0.5,-0.49999 0.13864,-0.00001 0.2641,0.05642 0.35468,0.14756l4.3221 4.32211c0.13573,0.13572 0.21965,0.32322 0.21965,0.53032 0,0.2064 -0.08337,0.39335 -0.21828,0.52896l-4.32347 4.32347c-0.09058,0.09114 -0.21604,0.14757 -0.35468,0.14756 -0.27615,0.00001 -0.5,-0.22384 -0.5,-0.49999 0,-0.13864 0.05643,-0.26411 0.14757,-0.35468l3.94682 -3.94681z"/>
 </g>
</svg>
