<?xml version="1.0" encoding="iso-8859-1"?>
<!-- Generator: Adobe Illustrator 19.0.0, SVG Export Plug-In . SVG Version: 6.00 Build 0)  -->
<svg version="1.1" id="Capa_1" xmlns="http://www.w3.org/2000/svg" xmlns:xlink="http://www.w3.org/1999/xlink" x="0px" y="0px"
	 viewBox="0 0 386.993 386.993" style="enable-background:new 0 0 386.993 386.993;" xml:space="preserve">
<g>
	<g>
		<g>
			<path d="M212.317,130.671h-40c-23.579,0.11-42.654,19.221-42.72,42.8v40c0.066,23.61,19.19,42.734,42.8,42.8h40
				c23.579-0.11,42.654-19.221,42.72-42.8v-40C255.051,149.861,235.927,130.737,212.317,130.671z"/>
			<path d="M386.957,124.031c-0.138-1.693-0.446-3.369-0.92-5c-0.581-2.156-1.442-4.227-2.56-6.16
				c-7.055-12.227-22.687-16.419-34.913-9.364c-0.002,0.001-0.004,0.003-0.007,0.004l-60.8,34.96l-25.88,15
				c2.61,6.347,3.968,13.138,4,20v40c-0.031,6.862-1.389,13.654-4,20l25.8,14.88l58.88,34c11.621,8.13,27.633,5.299,35.762-6.322
				c3.026-4.326,4.645-9.479,4.638-14.758v-135.8C387.005,124.993,387.005,124.51,386.957,124.031z"/>
			<path d="M123.237,152.391l-24.52-14.16l-60.4-34.8c-12.225-7.059-27.857-2.871-34.916,9.353
				c-0.001,0.002-0.003,0.004-0.004,0.007c-1.118,1.933-1.979,4.004-2.56,6.16c-0.445,1.688-0.713,3.417-0.8,5.16
				c0.38-1.88,1.505-3.525,3.12-4.56l-3.12,4.56c-0.049,0.479-0.049,0.961,0,1.44v135.68c0.016,14.205,11.545,25.707,25.749,25.691
				c5.172-0.006,10.222-1.571,14.491-4.491l59.64-34.56l23.28-13.44c-2.83-6.625-4.286-13.756-4.28-20.96v-40
				C118.906,166.224,120.376,159.05,123.237,152.391z"/>
		</g>
	</g>
</g>
<g>
</g>
<g>
</g>
<g>
</g>
<g>
</g>
<g>
</g>
<g>
</g>
<g>
</g>
<g>
</g>
<g>
</g>
<g>
</g>
<g>
</g>
<g>
</g>
<g>
</g>
<g>
</g>
<g>
</g>
</svg>
