<svg width="320" height="320" viewBox="0 0 320 320" fill="none" xmlns="http://www.w3.org/2000/svg">
<path fill-rule="evenodd" clip-rule="evenodd" d="M160.999 319.997C204.426 319.731 243.751 302.165 272.428 273.842L204.542 205.957C193.243 216.91 177.917 223.733 160.999 223.992V319.997ZM205.956 204.542L273.842 272.428C302.165 243.751 319.731 204.427 319.997 161H223.992C223.733 177.918 216.91 193.243 205.956 204.542ZM223.992 159H319.997C319.731 115.573 302.164 76.2486 273.842 47.5721L205.956 115.458C216.91 126.756 223.733 142.082 223.992 159ZM204.542 114.043L272.428 46.1579C243.751 17.8352 204.426 0.268612 160.999 0.00305176V96.0076C177.917 96.2666 193.243 103.09 204.542 114.043ZM158.999 319.997V223.992C142.082 223.733 126.756 216.91 115.458 205.956L47.5721 273.842C76.2485 302.164 115.572 319.731 158.999 319.997ZM46.1579 272.428L114.043 204.542C103.09 193.243 96.2668 177.918 96.0077 161H0.00305867C0.268812 204.427 17.8354 243.751 46.1579 272.428ZM0.000129155 160.206L0.000129147 159.795C4.30574e-05 159.863 0 159.931 0 160C0 160.069 4.30602e-05 160.137 0.000129155 160.206ZM0.00306017 159H96.0077C96.2668 142.082 103.09 126.757 114.043 115.458L46.1579 47.5723C17.8354 76.2489 0.268878 115.573 0.00306017 159ZM47.5721 46.1581L115.458 114.044C126.756 103.09 142.082 96.267 158.999 96.0077V0.00306222C115.572 0.269074 76.2485 17.8357 47.5721 46.1581Z" fill="url(#paint0_radial_703:1741)"/>
<defs>
<radialGradient id="paint0_radial_703:1741" cx="0" cy="0" r="1" gradientUnits="userSpaceOnUse" gradientTransform="translate(159.997 160) rotate(90) scale(159.997 160)">
<stop offset="0.400011" stop-opacity="0.6"/>
<stop offset="1" stop-opacity="0"/>
</radialGradient>
</defs>
</svg>
