<?xml version="1.0" encoding="utf-8"?>
<!-- Generator: Adobe Illustrator 19.0.1, SVG Export Plug-In . SVG Version: 6.00 Build 0)  -->
<svg version="1.1" xmlns="http://www.w3.org/2000/svg" xmlns:xlink="http://www.w3.org/1999/xlink" x="0px" y="0px"
	 viewBox="-49 141 512 512" style="enable-background:new -49 141 512 512;" xml:space="preserve">
<style type="text/css">
	.st0{fill:#BDC3C7;}
	.st1{fill:#FFFFFF;}
	.st2{fill:#b7ed51;}
	.st3{display:none;}
	.st4{display:inline;}
	.st5{fill:#A5E825;}
	.st6{fill:#BC0D7A;}
</style>
<g id="Слой_1__x28_копия2_x29_">
	<g id="Page-1_2_">
		<g id="_x30_10---Fuel-Pump_2_" transform="translate(-1.000000, 0.000000)">
			<path id="Shape_17_" class="st0" d="M200.5,240.2l-62.7-51c-2.3-1.9-5-3.3-7.8-4.1l-142.7-42c-5.7-1.7-11.8-1-17,1.8
				s-9.1,7.6-10.8,13.3l-6.3,21.5c-3.5,11.9,3.3,24.3,15.2,27.8l131.8,38.8c2.9,0.9,5.7,2.3,8,4.3l46.5,38.7l45.7-7.1L200.5,240.2z"
				/>
			<path id="Shape_16_" class="st1" d="M326.1,592.9c-3.8,0-7.2-2.4-8.4-6l-34.9-103.8c-2.9-8.7-8.2-16.3-15.4-21.9l-23.8-18.8
				c-3.8-3-4.5-8.6-1.5-12.4c3-3.8,8.6-4.5,12.4-1.5l23.8,18.8c9.9,7.8,17.3,18.3,21.3,30.3l34.9,103.7c0.9,2.7,0.5,5.7-1.2,8
				C331.6,591.6,328.9,592.9,326.1,592.9L326.1,592.9z"/>
			<path id="Shape_15_" class="st2" d="M379.1,371l9.6-11.1c8.1-9.4,7.1-23.5-2.3-31.6l-93.1-80.7c-4.5-3.9-10.3-5.8-16.3-5.4
				c-5.9,0.4-11.4,3.2-15.3,7.7l-20.7,24l-40.5-33.7l-45.9,49.2l9.9,8.3l61.4,318.8c2.6,13.4,11.1,24.9,23.2,31.2
				c12.1,6.3,26.4,6.8,38.9,1.3l91.7-40.5c2.1,5.1,6.1,9.1,11.1,11.2c5.1,2.1,10.7,2.1,15.8,0l44.7-18.3
				c10.5-4.3,15.6-16.4,11.2-26.9L379.1,371z M364.1,567.3l-84.5,37.3c-3.2,1.4-6.9,1.3-9.9-0.4c-3.1-1.7-5.2-4.7-5.7-8.1
				l-20.7-136.5c-2.7-18,9.4-34.9,27.3-38.1l13.2-2.4c16.4-2.9,32.5,6.6,37.8,22.3L364.1,567.3L364.1,567.3z"/>
			<path id="Shape_14_" class="st1" d="M57.9,374.9c0.9,26.2-18.2,48.7-44.1,52.3c-25.9-3.5-45-26.1-44.1-52.3
				c0-23.5,29-68.6,44.1-87C28.9,306.3,57.9,351.4,57.9,374.9z"/>
			<path id="Shape_13_" class="st1" d="M202.8,332.6c-4,0-7.5-2.7-8.5-6.6l-4.4-17.3c-0.8-3.1,0.1-6.3,2.4-8.5
				c2.3-2.2,5.5-3.1,8.6-2.2c3,0.8,5.4,3.2,6.2,6.3l4.4,17.3c1.2,4.7-1.6,9.5-6.4,10.7C204.3,332.5,203.6,332.6,202.8,332.6z"/>
			<path id="Shape_12_" class="st1" d="M224.9,414.7c-4.1,0-7.6-2.8-8.6-6.8l-12.5-53c-1.1-4.7,1.8-9.5,6.6-10.6
				c4.7-1.1,9.5,1.8,10.6,6.6l12.5,53c1.1,4.7-1.8,9.5-6.6,10.6C226.3,414.6,225.6,414.6,224.9,414.7z"/>
		</g>
	</g>
</g>
<g id="Слой_1__x28_копия_x29_" class="st3">
	<g id="Page-1_1_" class="st4">
		<g id="_x30_10---Fuel-Pump_1_" transform="translate(-1.000000, 0.000000)">
			<path id="Shape_11_" class="st0" d="M200.5,240.2l-62.7-51c-2.3-1.9-5-3.3-7.8-4.1l-142.7-42c-5.7-1.7-11.8-1-17,1.8
				s-9.1,7.6-10.8,13.3l-6.3,21.5c-3.5,11.9,3.3,24.3,15.2,27.8l131.8,38.8c2.9,0.9,5.7,2.3,8,4.3l46.5,38.7l45.7-7.1L200.5,240.2z"
				/>
			<path id="Shape_10_" class="st1" d="M326.1,592.9c-3.8,0-7.2-2.4-8.4-6l-34.9-103.8c-2.9-8.7-8.2-16.3-15.4-21.9l-23.8-18.8
				c-3.8-3-4.5-8.6-1.5-12.4c3-3.8,8.6-4.5,12.4-1.5l23.8,18.8c9.9,7.8,17.3,18.3,21.3,30.3l34.9,103.7c0.9,2.7,0.5,5.7-1.2,8
				C331.6,591.6,328.9,592.9,326.1,592.9L326.1,592.9z"/>
			<path id="Shape_9_" class="st5" d="M379.1,371l9.6-11.1c8.1-9.4,7.1-23.5-2.3-31.6l-93.1-80.7c-4.5-3.9-10.3-5.8-16.3-5.4
				c-5.9,0.4-11.4,3.2-15.3,7.7l-20.7,24l-40.5-33.7l-45.9,49.2l9.9,8.3l61.4,318.8c2.6,13.4,11.1,24.9,23.2,31.2
				c12.1,6.3,26.4,6.8,38.9,1.3l91.7-40.5c2.1,5.1,6.1,9.1,11.1,11.2c5.1,2.1,10.7,2.1,15.8,0l44.7-18.3
				c10.5-4.3,15.6-16.4,11.2-26.9L379.1,371z M364.1,567.3l-84.5,37.3c-3.2,1.4-6.9,1.3-9.9-0.4c-3.1-1.7-5.2-4.7-5.7-8.1
				l-20.7-136.5c-2.7-18,9.4-34.9,27.3-38.1l13.2-2.4c16.4-2.9,32.5,6.6,37.8,22.3L364.1,567.3L364.1,567.3z"/>
			<path id="Shape_8_" class="st1" d="M57.9,374.9c0.9,26.2-18.2,48.7-44.1,52.3c-25.9-3.5-45-26.1-44.1-52.3
				c0-23.5,29-68.6,44.1-87C28.9,306.3,57.9,351.4,57.9,374.9z"/>
			<path id="Shape_7_" class="st1" d="M202.8,332.6c-4,0-7.5-2.7-8.5-6.6l-4.4-17.3c-0.8-3.1,0.1-6.3,2.4-8.5
				c2.3-2.2,5.5-3.1,8.6-2.2c3,0.8,5.4,3.2,6.2,6.3l4.4,17.3c1.2,4.7-1.6,9.5-6.4,10.7C204.3,332.5,203.6,332.6,202.8,332.6z"/>
			<path id="Shape_3_" class="st1" d="M224.9,414.7c-4.1,0-7.6-2.8-8.6-6.8l-12.5-53c-1.1-4.7,1.8-9.5,6.6-10.6
				c4.7-1.1,9.5,1.8,10.6,6.6l12.5,53c1.1,4.7-1.8,9.5-6.6,10.6C226.3,414.6,225.6,414.6,224.9,414.7z"/>
		</g>
	</g>
</g>
<g id="Слой_1" class="st3">
	<g id="Page-1" class="st4">
		<g id="_x30_10---Fuel-Pump" transform="translate(-1.000000, 0.000000)">
			<path id="Shape" class="st0" d="M200.5,240.2l-62.7-51c-2.3-1.9-5-3.3-7.8-4.1l-142.7-42c-5.7-1.7-11.8-1-17,1.8
				s-9.1,7.6-10.8,13.3l-6.3,21.5c-3.5,11.9,3.3,24.3,15.2,27.8l131.8,38.8c2.9,0.9,5.7,2.3,8,4.3l46.5,38.7l45.7-7.1L200.5,240.2z"
				/>
			<path id="Shape_1_" class="st1" d="M326.1,592.9c-3.8,0-7.2-2.4-8.4-6l-34.9-103.8c-2.9-8.7-8.2-16.3-15.4-21.9l-23.8-18.8
				c-3.8-3-4.5-8.6-1.5-12.4c3-3.8,8.6-4.5,12.4-1.5l23.8,18.8c9.9,7.8,17.3,18.3,21.3,30.3l34.9,103.7c0.9,2.7,0.5,5.7-1.2,8
				C331.6,591.6,328.9,592.9,326.1,592.9L326.1,592.9z"/>
			<path id="Shape_2_" class="st6" d="M379.1,371l9.6-11.1c8.1-9.4,7.1-23.5-2.3-31.6l-93.1-80.7c-4.5-3.9-10.3-5.8-16.3-5.4
				c-5.9,0.4-11.4,3.2-15.3,7.7l-20.7,24l-40.5-33.7l-45.9,49.2l9.9,8.3l61.4,318.8c2.6,13.4,11.1,24.9,23.2,31.2
				c12.1,6.3,26.4,6.8,38.9,1.3l91.7-40.5c2.1,5.1,6.1,9.1,11.1,11.2c5.1,2.1,10.7,2.1,15.8,0l44.7-18.3
				c10.5-4.3,15.6-16.4,11.2-26.9L379.1,371z M364.1,567.3l-84.5,37.3c-3.2,1.4-6.9,1.3-9.9-0.4c-3.1-1.7-5.2-4.7-5.7-8.1
				l-20.7-136.5c-2.7-18,9.4-34.9,27.3-38.1l13.2-2.4c16.4-2.9,32.5,6.6,37.8,22.3L364.1,567.3L364.1,567.3z"/>
			<path id="Shape_4_" class="st1" d="M57.9,374.9c0.9,26.2-18.2,48.7-44.1,52.3c-25.9-3.5-45-26.1-44.1-52.3
				c0-23.5,29-68.6,44.1-87C28.9,306.3,57.9,351.4,57.9,374.9z"/>
			<path id="Shape_5_" class="st1" d="M202.8,332.6c-4,0-7.5-2.7-8.5-6.6l-4.4-17.3c-0.8-3.1,0.1-6.3,2.4-8.5
				c2.3-2.2,5.5-3.1,8.6-2.2c3,0.8,5.4,3.2,6.2,6.3l4.4,17.3c1.2,4.7-1.6,9.5-6.4,10.7C204.3,332.5,203.6,332.6,202.8,332.6z"/>
			<path id="Shape_6_" class="st1" d="M224.9,414.7c-4.1,0-7.6-2.8-8.6-6.8l-12.5-53c-1.1-4.7,1.8-9.5,6.6-10.6
				c4.7-1.1,9.5,1.8,10.6,6.6l12.5,53c1.1,4.7-1.8,9.5-6.6,10.6C226.3,414.6,225.6,414.6,224.9,414.7z"/>
		</g>
	</g>
</g>
</svg>
