<svg width="36" height="36" viewBox="0 0 36 36" fill="none" xmlns="http://www.w3.org/2000/svg">
<g clip-path="url(#clip0)">
<path d="M19.3217 18.0003L23.8083 13.5135C23.9317 13.39 23.9998 13.2252 24 13.0495C24 12.8737 23.9319 12.7087 23.8083 12.5854L23.4151 12.1923C23.2915 12.0685 23.1267 12.0007 22.9508 12.0007C22.7752 12.0007 22.6104 12.0685 22.4868 12.1923L18.0002 16.6789L13.5134 12.1923C13.39 12.0685 13.2251 12.0007 13.0493 12.0007C12.8737 12.0007 12.7088 12.0685 12.5854 12.1923L12.192 12.5854C11.936 12.8414 11.936 13.2578 12.192 13.5135L16.6787 18.0003L12.192 22.487C12.0685 22.6107 12.0005 22.7755 12.0005 22.9512C12.0005 23.1269 12.0685 23.2917 12.192 23.4153L12.5853 23.8083C12.7087 23.932 12.8737 24 13.0492 24C13.225 24 13.3899 23.932 13.5133 23.8083L18.0001 19.3217L22.4867 23.8083C22.6103 23.932 22.7751 24 22.9507 24H22.9509C23.1266 24 23.2914 23.932 23.415 23.8083L23.8082 23.4153C23.9316 23.2918 23.9997 23.1269 23.9997 22.9512C23.9997 22.7755 23.9316 22.6107 23.8082 22.4871L19.3217 18.0003Z" fill="#AAAAAA"/>
</g>
<defs>
<clipPath id="clip0">
<rect width="12" height="12" fill="white" transform="translate(12 12)"/>
</clipPath>
</defs>
</svg>
