<svg width="36" height="36" viewBox="0 0 36 36" fill="none" xmlns="http://www.w3.org/2000/svg">
<g clip-path="url(#clip0)">
<path d="M26.8952 16.6797L18.0152 8.16765C17.7832 7.94525 17.4168 7.94525 17.1848 8.16765L8.296 16.6885C8.108 16.8765 8 17.1357 8 17.4005C8 17.9517 8.4488 18.4005 9 18.4005H10.4V26.0005C10.4 26.6629 10.9376 27.2005 11.6 27.2005H15C15.3312 27.2005 15.6 26.9317 15.6 26.6005V21.4005C15.6 21.2909 15.6896 21.2005 15.8 21.2005H19.4C19.5096 21.2005 19.6 21.2909 19.6 21.4005V26.6005C19.6 26.9317 19.8688 27.2005 20.2 27.2005H23.6C24.2624 27.2005 24.8 26.6629 24.8 26.0005V18.4005H26.2C26.7512 18.4005 27.2 17.9517 27.2 17.4005C27.2 17.1357 27.092 16.8765 26.8952 16.6797Z" fill="#AAAAAA"/>
</g>
<defs>
<clipPath id="clip0">
<rect width="19.2" height="19.2" fill="white" transform="translate(8 8)"/>
</clipPath>
</defs>
</svg>
