<svg width="36" height="36" viewBox="0 0 36 36" fill="none" xmlns="http://www.w3.org/2000/svg">
<g clip-path="url(#clip0)">
<path d="M14.0511 8.31968L13.4111 8.97481C13.2113 9.18099 13.1012 9.45529 13.1012 9.74847C13.1012 10.0415 13.2113 10.3161 13.4111 10.5223L20.6613 17.9955L13.4031 25.4774C13.2032 25.6832 13.0933 25.9579 13.0933 26.2509C13.0933 26.5439 13.2032 26.8187 13.4031 27.0247L14.0391 27.68C14.4527 28.1067 15.1264 28.1067 15.54 27.68L24.2129 18.772C24.4126 18.5661 24.5533 18.2918 24.5533 17.9962L24.5533 17.9928C24.5533 17.6996 24.4124 17.4253 24.2129 17.2194L15.5635 8.31968C15.3638 8.1135 15.0897 8.00032 14.8054 8C14.521 8 14.2506 8.1135 14.0511 8.31968Z" fill="#AAAAAA"/>
</g>
<defs>
<clipPath id="clip0">
<rect width="20" height="20" fill="white" transform="translate(9 28) rotate(-90)"/>
</clipPath>
</defs>
</svg>
