<svg height="512pt" viewBox="-31 0 512 512" width="512pt" xmlns="http://www.w3.org/2000/svg"><path d="m0 467v30c0 8.289062 6.710938 15 15 15h420c8.289062 0 15-6.710938 15-15v-30c0-57.890625-47.109375-106-105-106h-25.421875c-17.25 36.203125-53.847656 60-94.578125 60s-77.328125-23.796875-94.578125-60h-25.421875c-57.890625 0-105 48.109375-105 106zm315-46h30c8.289062 0 15 6.710938 15 15s-6.710938 15-15 15h-30c-8.289062 0-15-6.710938-15-15s6.710938-15 15-15zm0 0"/><path d="m225 355.375c-23.820312 0-46.1875-5.964844-66.351562-15.816406l-1.804688 7.214844c12.027344 26.621093 38.546875 44.226562 68.15625 44.226562s56.128906-17.609375 68.160156-44.226562l-1.796875-7.175782c-20.140625 9.828125-42.472656 15.777344-66.261719 15.777344zm0 0"/><path d="m356.878906 109.5c2.003906-59.394531-45.527344-109.5-104.941406-109.5h-53.804688c-59.453124 0-106.972656 50.144531-104.941406 109.589844l.394532 11.410156c11.5625 0 265.9375 0 262.90625 0zm-101.878906-18.5h-60c-8.289062 0-15-6.710938-15-15s6.710938-15 15-15h60c8.289062 0 15 6.710938 15 15s-6.710938 15-15 15zm0 0"/><path d="m344.691406 224.066406 10.789063-73.066406h-5.601563c-20.300781 36.972656-58.257812 60-100.195312 60h-49.308594c-42.246094 0-80.433594-23.347656-100.304688-60h-5.386718l10.726562 73.066406c8.523438 51.136719 47.769532 90.042969 97.074219 99.242188 4.136719 2.40625 38.242187 4.007812 45.132813 0 49.308593-9.199219 88.550781-48.105469 97.074218-99.242188zm0 0"/><path d="m249.683594 181c25.304687 0 48.746094-11.289062 64.523437-30h-178.371093c15.773437 18.71875 39.234374 30 64.539062 30zm0 0"/></svg>