<svg height="448pt" viewBox="0 0 448 448" width="448pt" xmlns="http://www.w3.org/2000/svg"><path d="m88 176c48.601562 0 88-39.398438 88-88s-39.398438-88-88-88-88 39.398438-88 88c.0585938 48.578125 39.421875 87.941406 88 88zm0-32c30.914062-.035156 55.964844-25.085938 56-56h16c-.042969 39.746094-32.253906 71.957031-72 72zm0 0"/><path d="m232 32c0 4.417969-3.582031 8-8 8s-8-3.582031-8-8 3.582031-8 8-8 8 3.582031 8 8zm0 0"/><path d="m376 32c-39.765625 0-72 32.234375-72 72s32.234375 72 72 72 72-32.234375 72-72c-.042969-39.746094-32.253906-71.957031-72-72zm0 32c-22.082031.027344-39.972656 17.917969-40 40h-16c.035156-30.914062 25.085938-55.964844 56-56zm0 0"/><path d="m40 256c0 4.417969-3.582031 8-8 8s-8-3.582031-8-8 3.582031-8 8-8 8 3.582031 8 8zm0 0"/><path d="m256 224c0 17.671875-14.328125 32-32 32s-32-14.328125-32-32 14.328125-32 32-32 32 14.328125 32 32zm0 0"/><path d="m416 304c0 17.671875-14.328125 32-32 32s-32-14.328125-32-32 14.328125-32 32-32 32 14.328125 32 32zm0 0"/><path d="m336 416c0 4.417969-3.582031 8-8 8s-8-3.582031-8-8 3.582031-8 8-8 8 3.582031 8 8zm0 0"/><path d="m160 304c-39.765625 0-72 32.234375-72 72s32.234375 72 72 72 72-32.234375 72-72c-.042969-39.746094-32.253906-71.957031-72-72zm0 128c-30.914062-.035156-55.964844-25.085938-56-56h16c.027344 22.082031 17.917969 39.972656 40 40zm0 0"/></svg>