<svg height="512" viewBox="0 0 64 64" width="512" xmlns="http://www.w3.org/2000/svg"><g id="Email_transfer" data-name="Email transfer"><path d="m36.473 8-3.835-3.174a1 1 0 0 0 -1.276 0l-3.835 3.174z"/><path d="m12 33.151 11.541 9.549 6.546-5.417a3 3 0 0 1 3.826 0l6.546 5.417 11.541-9.549v-23.151h-40zm15-19.151h20a1 1 0 0 1 0 2h-20a1 1 0 0 1 0-2zm0 6h20a1 1 0 0 1 0 2h-20a1 1 0 0 1 0-2zm0 6h20a1 1 0 0 1 0 2h-20a1 1 0 0 1 0-2zm-8-4a2.993 2.993 0 0 1 -1-5.816v-1.184a1 1 0 0 1 2 0v1.184a3 3 0 0 1 2 2.816 1 1 0 0 1 -2 0 1 1 0 1 0 -1 1 2.993 2.993 0 0 1 1 5.816v1.184a1 1 0 0 1 -2 0v-1.184a3 3 0 0 1 -2-2.816 1 1 0 0 1 2 0 1 1 0 1 0 1-1zm-2 10h30a1 1 0 0 1 0 2h-30a1 1 0 0 1 0-2z"/><path d="m4.569 27 5.431 4.495v-8.989z"/><path d="m4 58.874 17.972-14.873-17.972-14.875z"/><path d="m60 29.126-17.972 14.875 17.972 14.873z"/><path d="m32.638 38.826a1 1 0 0 0 -1.276 0l-25.585 21.174h52.446z"/><path d="m54 31.495 5.431-4.495-5.431-4.494z"/></g></svg>