<svg width="279" height="62" viewBox="0 0 279 62" fill="none" xmlns="http://www.w3.org/2000/svg">
<path fill-rule="evenodd" clip-rule="evenodd" d="M0.72407 28.1749L12.6748 29.2608C23.6297 30.2562 46.5353 32.3376 69.441 34.419C92.3466 36.5004 115.252 38.5818 140.149 29.7988C164.05 20.9253 189.037 0.101056 212.124 0.190644C235.301 -0.715664 256.759 17.3001 266.899 27.2586L278.126 36.3117L275.864 61.2091L263.913 60.1232C252.958 59.1277 230.052 57.0464 207.147 54.965C184.241 52.8836 161.335 50.8022 138.43 48.7208C114.528 46.5489 91.6226 44.4676 68.717 42.3862C45.8114 40.3048 22.9057 38.2234 11.9509 37.228L0.000110455 36.142L0.72407 28.1749Z" fill="#D4026F"/>
</svg>
